<svg width="65" height="30" viewBox="0 0 65 30" fill="none" xmlns="http://www.w3.org/2000/svg">
<path d="M3.40601 2.97538C3.40601 2.43669 3.84324 2 4.38259 2H17.2176C17.757 2 18.1942 2.43669 18.1942 2.97538V6.30791H4.38259C3.84324 6.30791 3.40601 5.87122 3.40601 5.33254V2.97538Z" fill="#F1A183"/>
<path d="M13.881 6.30791H18.1942V12.3082H13.881V6.30791Z" fill="#F1A183"/>
<path d="M3.40601 13.2836C3.40601 12.7449 3.84324 12.3082 4.38259 12.3082H18.1942V15.6408C18.1942 16.1794 17.757 16.6161 17.2176 16.6161H3.40601V13.2836Z" fill="#F1A183"/>
<path d="M3.40601 16.6161L7.71924 16.6161V20.8718C7.71924 21.4105 7.28201 21.8472 6.74266 21.8472H4.38259C3.84324 21.8472 3.40601 21.4105 3.40601 20.8718V16.6161Z" fill="#F1A183"/>
<path d="M3.40601 24.991C3.40601 24.4523 3.84324 24.0156 4.38259 24.0156H6.74266C7.28201 24.0156 7.71924 24.4523 7.71924 24.991V27.3482C7.71924 27.8869 7.28201 28.3235 6.74266 28.3235H4.38259C3.84324 28.3235 3.40601 27.8869 3.40601 27.3482V24.991Z" fill="#F1A183"/>
<path d="M34.552 12.8685C34.552 12.3298 34.9893 11.8931 35.5286 11.8931H38.4584V28.3352H35.5286C34.9893 28.3352 34.552 27.8985 34.552 27.3598V12.8685Z" fill="#F1A183"/>
<path d="M38.4584 11.8931H44.1783C44.7177 11.8931 45.1549 12.3298 45.1549 12.8685V14.8192C45.1549 15.3579 44.7177 15.7946 44.1783 15.7946H38.4584V11.8931Z" fill="#F1A183"/>
<path d="M38.4584 18.1634H44.0388C44.5782 18.1634 45.0154 18.6001 45.0154 19.1388V21.0895C45.0154 21.6282 44.5782 22.0649 44.0388 22.0649H38.4584V18.1634Z" fill="#F1A183"/>
<path d="M38.4584 24.4337H44.0388C44.5782 24.4337 45.0154 24.8703 45.0154 25.409V27.3598C45.0154 27.8985 44.5782 28.3352 44.0388 28.3352H38.4584V24.4337Z" fill="#F1A183"/>
<path d="M46.9686 12.8685C46.9686 12.3298 47.4058 11.8931 47.9452 11.8931H59.5246C60.064 11.8931 60.5012 12.3298 60.5012 12.8685V14.8192C60.5012 15.3579 60.064 15.7946 59.5246 15.7946H47.9452C47.4058 15.7946 46.9686 15.3579 46.9686 14.8192V12.8685Z" fill="#F1A183"/>
<path d="M51.8515 15.7946H55.7578V27.3598C55.7578 27.8985 55.3206 28.3352 54.7812 28.3352H52.8281C52.2887 28.3352 51.8515 27.8985 51.8515 27.3598V15.7946Z" fill="#F1A183"/>
<path d="M24.2282 19.1388C24.2282 18.6001 24.6654 18.1634 25.2048 18.1634H27.1579C27.6973 18.1634 28.1345 18.6001 28.1345 19.1388V27.3598C28.1345 27.8985 27.6973 28.3352 27.1579 28.3352H25.2048C24.6654 28.3352 24.2282 27.8985 24.2282 27.3598V19.1388Z" fill="#F1A183"/>
<path d="M19.7653 14.5439C19.437 14.1165 19.5177 13.5042 19.9456 13.1763L21.3845 12.0735C21.8123 11.7456 22.4254 11.8262 22.7537 12.2536L27.5947 18.5547C27.923 18.982 27.8423 19.5943 27.4144 19.9223L25.9756 21.025C25.5477 21.3529 24.9346 21.2723 24.6063 20.8449L19.7653 14.5439Z" fill="#F1A183"/>
<path d="M29.6637 12.2489C29.992 11.8215 30.605 11.7409 31.0329 12.0689L32.4718 13.1716C32.8997 13.4995 32.9804 14.1118 32.6521 14.5392L27.8111 20.8402C27.4828 21.2676 26.8697 21.3482 26.4418 21.0203L25.003 19.9176C24.5751 19.5896 24.4944 18.9774 24.8227 18.55L29.6637 12.2489Z" fill="#F1A183"/>
</svg>
